<?xml version="1.0" encoding="UTF-8" standalone="no"?>
<!-- Created with Inkscape (http://www.inkscape.org/) -->

<svg
   version="1.1"
   id="svg2"
   width="54"
   height="38"
   viewBox="0 0 1443.4399 1028.4399"
   sodipodi:docname="rss_logo.eps"
   xmlns:inkscape="http://www.inkscape.org/namespaces/inkscape"
   xmlns:sodipodi="http://sodipodi.sourceforge.net/DTD/sodipodi-0.dtd"
   xmlns="http://www.w3.org/2000/svg"
   xmlns:svg="http://www.w3.org/2000/svg">
  <defs
     id="defs6" />
  <sodipodi:namedview
     id="namedview4"
     pagecolor="#ffffff"
     bordercolor="#000000"
     borderopacity="0.25"
     inkscape:showpageshadow="2"
     inkscape:pageopacity="0.0"
     inkscape:pagecheckerboard="0"
     inkscape:deskcolor="#d1d1d1" />
  <g
     id="g8"
     inkscape:groupmode="layer"
     inkscape:label="ink_ext_XXXXXX"
     transform="matrix(1.3333333,0,0,-1.3333333,0,1028.44)">
    <g
       id="g10"
       transform="scale(0.1)">
      <path
         d="m 3305.72,6565.94 c -4.97,2.03 -10.55,3.81 -16.67,5.37 -45.75,-64.54 -72.5,-151.33 -80.32,-260.36 5.83,2.45 11.29,7.47 16.33,15.09 17.92,39.11 35.86,78.21 53.79,117.35 18.68,50.4 27.64,91.26 26.87,122.55 z m 261.89,-339.3 -3.05,-7.46 c -4.38,-5.96 -4.26,-12.8 0.34,-20.47 -64.05,-109.29 -123.1,-178.01 -177.2,-206.22 -31.06,-14.38 -64.47,-21.55 -100.21,-21.45 -31.59,3.23 -56.94,14.55 -76.09,34.01 -16.02,15.24 -34.84,43.75 -56.49,85.51 -41.24,199.72 -14.17,380.72 81.22,543.02 4.17,3.1 16.62,11.09 37.36,23.91 17.19,11.35 34.16,14.34 50.84,8.98 16.67,-5.37 28.93,-17.41 36.77,-36.09 4.02,-16.18 8.39,-31.5 13.12,-46 8.55,-76.09 -26.33,-182.77 -104.72,-320.05 -4.54,-8.8 -21.37,-22.71 -50.46,-41.78 -17.22,-11.35 -21.57,-25.54 -13.04,-42.57 -4.42,-32.08 -0.79,-58.73 10.87,-79.92 3.92,-9.35 15.92,-24.92 36.06,-46.67 31.61,-19.7 69.6,-20.24 114.01,-1.61 l 4.81,8.19 c 18.66,7.84 41.68,25.03 68.99,51.62 24.37,33.56 64.58,83.41 120.64,149.53 3.12,-4.2 5.43,-8.02 6.9,-11.53 2.94,-7.01 2.71,-14.67 -0.67,-22.95"
         style="fill:#fffcf6;fill-opacity:1;fill-rule:nonzero;stroke:none"
         id="path12" />
      <path
         d="m 3545.16,6722.05 c 22.84,-15.15 41.61,-40.24 56.3,-75.28 16.67,-39.72 24.05,-86.75 22.14,-141.13 6.37,-15.19 12.74,-41.01 19.12,-77.49 6.36,-36.48 14.39,-62.98 24.1,-79.51 17.56,59.55 45.93,149.08 85.11,268.54 31.52,98.39 69.99,181.85 115.42,250.37 39.26,1.34 68.21,-20.15 86.84,-64.53 3.43,-8.19 9.84,-26.77 19.28,-55.79 6.97,-23.18 13.75,-40.94 20.3,-53.29 5.6,-52.61 17.28,-132.86 35.1,-240.77 1.65,-0.7 3.4,0.04 5.26,2.2 19.94,44.08 38.54,110.25 55.77,198.55 17.22,88.25 34.09,150.29 50.68,186.1 32.48,69.94 51.65,110.96 57.57,123.07 9.6,16.39 29.03,43.76 58.26,82.14 18.67,7.83 35.7,3.29 51.04,-13.61 21.64,-41.76 34.86,-94.58 39.71,-158.48 5.11,-94.02 9.43,-148.52 12.99,-163.52 29.39,-138.79 54.78,-230.45 76.25,-275.01 l 1.75,0.74 c 4.65,1.95 13.25,2.81 25.72,2.54 4.01,-16.15 2.26,-29.96 -5.31,-41.37 -1.17,-0.5 -11.48,-10.3 -30.9,-29.46 -38.34,12.8 -67.57,43.16 -87.67,91.07 -5.88,14.01 -13.19,34.65 -21.92,61.91 -8.73,27.25 -16.05,47.9 -21.93,61.92 -9.12,44.28 -17.07,103.5 -23.81,177.65 -6.6,89.08 -11.97,148.52 -16.08,178.34 l -3.53,-1.41 c -2.51,-3.83 -4.41,-10.81 -5.64,-20.91 -1.25,-10.16 -3.04,-15.71 -5.37,-16.68 -14.67,-24.03 -25.44,-49.16 -32.29,-75.37 -14.86,-52.95 -26.81,-91.61 -35.83,-116 -15.75,-57.44 -38.99,-137.93 -69.72,-241.48 -14.69,-50.15 -25.58,-81.51 -32.67,-94.07 -23.68,-48.38 -45.6,-74.78 -65.75,-79.11 -5.79,7.2 -10.44,18.29 -13.97,33.29 -4.82,21.32 -8.21,34.32 -10.18,39 -6.86,16.35 -18.71,56.02 -35.53,119.02 -4.31,20.14 -9.61,60.52 -15.79,121.13 -0.73,14.79 -3.68,30.03 -8.89,45.72 -3.91,9.33 -9.65,21.35 -17.18,36.06 -7.54,14.67 -12.29,24.37 -14.25,29.05 -4.42,10.51 -9.17,20.16 -14.25,29.05 -17.51,-23.83 -33.28,-64.81 -47.34,-122.89 -16.12,-63.1 -30.35,-106.16 -42.65,-129.16 -9.15,-43.7 -28.8,-100.01 -58.91,-168.96 -27.24,-59.53 -42.25,-110.46 -45.07,-152.84 -2.15,1.83 -5.55,-2.33 -10.2,-12.52 -4.67,-10.21 -7.58,-15.55 -8.73,-16.03 -2.34,-0.99 -5.25,-2.21 -8.75,-3.68 -8.19,-3.43 -14.02,-5.87 -17.52,-7.35 -9.35,-3.92 -19.33,-4.67 -29.96,-2.27 -17.18,57.35 -30.04,137.1 -38.6,239.31 -9.64,111.34 -22.5,191.11 -38.61,239.3 -14.6,28.19 -32.76,53.53 -54.56,76 12.5,25.85 36.05,38.48 70.65,37.9"
         style="fill:#fffcf6;fill-opacity:1;fill-rule:nonzero;stroke:none"
         id="path14" />
      <path
         d="m 4711.37,7100.14 c -14.28,24.22 -33.32,36.83 -57.09,37.87 l -65.33,-60.38 26.34,-13.68 c 6.56,-12.38 15.56,-30.56 27.03,-54.59 8.82,-21.02 9.51,-40.67 2.05,-58.9 -4.39,-5.96 -9.23,-10.76 -14.58,-14.36 -15.87,-8.04 -34.48,6.81 -55.8,44.58 -8.55,-9.09 -16.84,-26.99 -24.86,-53.69 -10.06,-31.72 -17.95,-52.2 -23.66,-61.45 -3.31,-83.81 -3.66,-132.06 -1.1,-144.7 2.24,-34.79 9.23,-66.18 20.99,-94.22 5.88,-14.01 12.91,-27.54 21.15,-40.57 13.06,-8.27 33.52,-7.93 61.38,1.03 116.98,94.42 160.56,237.69 130.74,429.87 -17.21,31.22 -32.97,58.97 -47.26,83.19 z m 134.91,-238.03 c -7.39,-8.61 -11.07,-21.13 -11.02,-37.59 0.16,-23.31 -0.44,-36.61 -1.79,-39.91 -6.18,-24.57 -20.84,-61.65 -44.01,-111.19 -13.96,-64.91 -53.37,-115.11 -118.14,-150.55 -18.22,-8.98 -37.4,-15.68 -57.54,-20.01 -54.86,3.08 -102.18,34.04 -142,92.89 -12.18,38.83 -19.15,83.3 -20.95,133.39 -0.26,30.08 -1.03,74.42 -2.23,132.99 4.93,14.43 9.35,38.25 13.27,71.5 5.36,29.72 14.27,52.67 26.71,68.91 4.4,32.04 21.48,58.46 51.25,79.2 12.65,2.54 27.02,22.31 43.11,59.3 -3.13,4.16 -3.15,12.4 -0.06,24.7 12.35,6.53 23.79,12.04 34.3,16.46 17.52,7.35 32.27,11.48 44.26,12.38 62.1,-13.79 109.82,-60.38 143.14,-139.79 8.34,-19.89 15.57,-41.23 21.72,-64.04 6.15,-22.86 12.8,-65.72 19.98,-128.64"
         style="fill:#fffcf6;fill-opacity:1;fill-rule:nonzero;stroke:none"
         id="path16" />
      <path
         d="m 5056.04,7373.78 c 25.98,6.82 51.72,14.21 77.22,22.2 30.47,5.96 57.84,4.54 82.17,-4.31 l 15.6,-32.26 c -18.21,-9.02 -51.5,-22.98 -99.87,-41.9 -30.18,-9.93 -54.31,-22.8 -72.39,-38.62 -14.67,-177.89 0.35,-315.11 45.02,-411.75 5.89,-14.01 13.43,-26.3 22.67,-36.84 9.23,-10.56 23.76,-11.67 43.65,-3.33 11.66,4.89 24.68,13.1 39.1,24.65 12.36,6.54 29.15,24.59 50.43,54.13 21.26,29.52 44.49,50.25 69.71,62.22 5.44,-71.9 -30.41,-137.07 -107.52,-195.54 -9.54,-6.73 -18.4,-11.84 -26.57,-15.26 -31.52,-13.23 -60.23,-13.59 -86.07,-1.09 -35.23,25.04 -63.26,60.67 -84.01,106.91 -29.31,63.24 -45.04,146.63 -47.26,250.11 2.84,25.92 2.3,64.84 -1.61,116.76 -40.4,-18.34 -67.35,-52.31 -80.85,-101.92 -20.54,-10 -44.76,1.83 -72.59,35.48 -3.07,13.81 5.07,33.71 24.41,59.69 11.15,22.52 30.08,42.83 56.84,60.94 24.21,14.28 48.2,29.14 71.94,44.61 9.81,130.48 5.13,248.03 -14.04,352.64 3.26,15.09 9.56,24.62 18.93,28.55 14.68,7.51 33.9,2.67 57.64,-14.61 30.01,-81.35 37.08,-186.59 21.24,-315.78 -1.87,-2.14 -3.13,-4.05 -3.79,-5.68"
         style="fill:#fffcf6;fill-opacity:1;fill-rule:nonzero;stroke:none"
         id="path18" />
      <path
         d="m 5527.23,7498.13 c -4.98,2.03 -10.56,3.81 -16.68,5.37 -45.76,-64.54 -72.5,-151.32 -80.33,-260.36 5.84,2.45 11.29,7.47 16.34,15.09 17.91,39.1 35.85,78.22 53.78,117.36 18.68,50.39 27.65,91.25 26.89,122.54 z m 261.88,-339.3 -3.05,-7.46 c -4.39,-5.96 -4.26,-12.8 0.34,-20.46 -64.05,-109.3 -123.11,-178.02 -177.21,-206.23 -31.05,-14.39 -64.45,-21.55 -100.21,-21.45 -31.58,3.23 -56.93,14.55 -76.08,34.02 -16.02,15.23 -34.84,43.74 -56.48,85.49 -41.25,199.72 -14.17,380.72 81.21,543.03 4.17,3.1 16.63,11.09 37.35,23.92 17.2,11.33 34.17,14.33 50.84,8.97 16.67,-5.37 28.95,-17.42 36.78,-36.08 4.02,-16.19 8.39,-31.51 13.11,-46.01 8.57,-76.09 -26.32,-182.78 -104.7,-320.05 -4.55,-8.8 -21.38,-22.72 -50.47,-41.78 -17.23,-11.35 -21.58,-25.54 -13.05,-42.56 -4.4,-32.08 -0.78,-58.74 10.87,-79.93 3.93,-9.36 15.94,-24.92 36.07,-46.68 31.61,-19.69 69.6,-20.24 114.01,-1.61 l 4.8,8.2 c 18.67,7.84 41.69,25.03 69.01,51.62 24.34,33.56 64.57,83.41 120.63,149.52 3.12,-4.19 5.43,-8.02 6.9,-11.52 2.94,-7.01 2.71,-14.67 -0.67,-22.95"
         style="fill:#fffcf6;fill-opacity:1;fill-rule:nonzero;stroke:none"
         id="path20" />
      <path
         d="m 2075.89,7193.99 c -12.07,-10.61 -25.16,-18.82 -39.21,-24.71 -21.07,-8.85 -53.09,-14.73 -95.94,-17.53 -42.88,-2.9 -72.55,-7.73 -88.91,-14.6 -16.41,-6.88 -30.15,-16.78 -41.25,-29.7 3.8,-28.75 5.59,-74.09 5.47,-136.12 -0.17,-62.05 9.98,-110.86 30.41,-146.31 l -17.57,-7.38 c 8.89,-54.1 17.16,-152.58 24.78,-295.36 7.33,-129.14 22.45,-227.51 45.29,-295.01 2.57,-12.74 0.82,-43.03 -5.19,-91.01 -6.07,-48.01 -3.97,-80.88 6.25,-98.61 83.09,51.39 193.59,155.61 331.57,312.66 120.77,138.81 215.41,261.15 283.95,367.07 21.56,33.84 72.48,148.82 152.7,345.04 3.01,45.3 -1.38,82.07 -13.17,110.17 -8.85,21.08 -22.1,36.18 -39.68,45.33 -141.32,15.08 -321.13,7.08 -539.5,-23.93 z m 777.2,-99.45 c 2.81,-26.39 -14.04,-91.3 -50.5,-194.73 -62.65,-119.96 -146.07,-262.4 -250.39,-427.35 -22.59,-31.56 -62.69,-86.93 -120.33,-166.19 -44.42,-51.69 -127.54,-129.31 -249.41,-232.74 -10.76,-7.29 -35.76,-32.95 -75.13,-76.97 -22.85,-17.86 -29.8,-37.3 -20.95,-58.39 88.94,-15.03 220.45,-57.64 394.51,-127.8 174.08,-70.21 305.08,-111.63 393.04,-124.31 49.62,-6.73 137.08,-1.74 262.26,15.02 36.72,4.36 83.7,17.17 140.88,38.46 50.17,18.28 110,36.46 179.52,54.67 -20.4,-49.88 -62.02,-101.75 -124.76,-155.64 -166.09,-83.45 -341.55,-111.63 -526.44,-84.57 -126.28,18.61 -287.33,70.86 -483.1,156.76 -19.36,0.13 -80.66,11.6 -183.85,34.42 -72.9,16.2 -135.26,20.32 -187.01,12.42 l -2.6,-13.5 c 9.83,-23.44 19.45,-75.89 28.82,-157.3 7.76,-71.12 21.11,-119.23 39.93,-144.39 1.72,8.99 4.97,40.63 9.72,94.99 3.6,37.27 26.51,64.84 68.67,82.53 27.66,-46.24 37.33,-110.36 29.06,-192.34 -8.33,-82.01 -6.04,-138.24 6.73,-168.65 -4.04,-43.01 -24.67,-105.38 -61.96,-187.14 -86.54,-17.02 -146.98,15.47 -181.37,97.43 -14.74,35.13 -28.6,100.92 -41.53,197.44 -12.32,88.43 -27.56,150.92 -45.6,187.45 2.16,67.01 -8.11,117.77 -30.87,152.32 L 1517.48,5600.3 c -11.15,20.11 -32.02,32 -62.51,35.74 -30.49,3.72 -48.68,12.63 -54.58,26.68 -4.91,11.69 -7.29,27.22 -7.15,46.59 59.01,82.59 170.29,155.44 333.85,218.58 l 9.63,16.45 c -7.51,24.35 -15.17,72.14 -22.93,143.25 -6.24,60.72 -17.38,106.98 -33.47,138.83 l 11.2,91.47 c -14.93,186.52 -50,463.8 -105.25,831.79 -40.04,-3.05 -69.88,18.83 -89.55,65.71 -14.54,21.41 -12.36,45.76 6.55,73 17.17,18.17 33.82,37.57 49.97,58.15 29.92,-12.23 73.1,-13.41 129.55,-3.48 31.06,4.77 74.71,2.43 131.03,-7 81.22,23.06 205.79,47.76 373.78,74.22 221.17,4.61 352.53,3.3 394.2,-3.99 142.89,-25.45 244,-105.63 303.35,-240.45 l -32.06,-71.3"
         style="fill:#ed1a31;fill-opacity:1;fill-rule:nonzero;stroke:none"
         id="path22" />
      <path
         d="m 4298.33,5967.46 c 2.18,-31.79 -9.79,-81.56 -35.84,-149.35 l -32.17,29.21 c 0.2,-24.03 -5.05,-39.38 -15.74,-46.19 -8.59,-5.48 -28.93,-1.91 -61.08,10.77 l -8.48,-0.88 c -9.93,-3.36 -20.27,-8.4 -30.96,-15.22 -21.44,-13.66 -44.33,-40.32 -68.76,-79.97 -24.4,-39.69 -44.51,-66.06 -60.29,-79.08 -43.92,-115.39 -70.98,-195.89 -81.07,-241.43 -21.58,-89.08 -23.66,-173.21 -6.25,-252.47 -18.68,-17.98 -23.8,-61.91 -15.39,-131.81 12.7,-34.11 27.22,-63.97 43.6,-89.67 57.34,-89.96 153.57,-137.06 288.81,-141.23 64.11,-1.35 182.14,0.09 354.16,4.34 150.78,-33.44 231.47,-51.27 241.98,-53.6 98.01,-30.93 164.11,-73.16 198.22,-126.69 25.94,-40.71 39.71,-90.67 41.3,-149.86 -11.01,-124.5 -53.17,-256.84 -126.54,-396.93 -39.68,-79.5 -114.05,-199.19 -223,-358.99 -24.98,-12.88 -42.69,-34.7 -53.14,-65.49 -58.05,-46.04 -112.73,-85.41 -164.14,-118.17 -113.55,-72.38 -210.5,-111.57 -290.96,-117.68 l -49.71,49.64 c 13.83,20.83 28.26,36.09 43.22,45.62 10.74,6.85 29.71,13.64 56.96,20.5 27.29,6.8 47.72,16.07 61.34,27.8 248.88,143.51 436.85,410.93 564,802.23 28.55,87.45 17.73,158.83 -32.58,214.17 -40.14,34.63 -140.71,62.38 -301.63,83.36 -193.84,-3.11 -346.18,6.74 -457.04,29.49 -125.67,-10.85 -226.67,43.74 -303.14,163.72 -17.73,27.81 -32.94,58.77 -45.65,92.89 -37.71,153.65 -40.62,312.96 -8.67,477.91 31.93,164.91 93.62,312.67 185.11,443.27 34.8,49.29 83.27,93.74 145.42,133.35 119.93,76.44 194.97,91.08 224.99,43.99 2.74,-4.32 6.25,-13.37 10.53,-27.17 4.3,-13.84 8.49,-23.95 12.59,-30.38"
         style="fill:#ed1a31;fill-opacity:1;fill-rule:nonzero;stroke:none"
         id="path24" />
      <path
         d="m 5712.29,4273.95 c 1.06,-31.84 -12.68,-81.15 -41.12,-147.97 l -31.11,30.32 c -0.66,-24.01 -6.45,-39.17 -17.37,-45.59 -8.78,-5.17 -28.98,-0.88 -60.66,12.94 l -8.5,-0.58 c -10.04,-3.02 -20.56,-7.69 -31.49,-14.12 -21.91,-12.89 -45.73,-38.71 -71.56,-77.47 -25.8,-38.8 -46.84,-64.43 -63.07,-76.88 -48,-113.76 -77.9,-193.24 -89.6,-238.39 -24.74,-88.26 -29.81,-172.26 -15.23,-252.09 -19.32,-17.3 -25.99,-61.02 -20.08,-131.17 11.48,-34.54 24.93,-64.91 40.38,-91.18 54.1,-91.94 148.6,-142.43 283.6,-151.41 64.03,-3.63 182.04,-6.38 354.09,-8.27 149.5,-38.78 229.5,-59.46 239.94,-62.18 96.84,-34.4 161.38,-78.95 193.57,-133.65 24.48,-41.61 36.47,-92.03 35.94,-151.25 -15.44,-124.02 -62.27,-254.78 -140.58,-392.16 -42.49,-78.05 -121.07,-195.02 -235.63,-350.82 -25.42,-12 -43.91,-33.17 -55.44,-63.57 -59.65,-43.94 -115.7,-81.35 -168.24,-112.26 -116.06,-68.29 -214.33,-104 -294.96,-107.24 l -47.92,51.38 c 14.57,20.31 29.53,35.04 44.82,44.04 10.98,6.46 30.17,12.58 57.65,18.46 27.52,5.83 48.26,14.37 62.29,25.6 253.83,134.57 451.19,395.12 592.19,781.66 31.65,86.37 23.37,158.1 -24.94,215.19 -38.89,36.04 -138.4,67.35 -298.47,94.04 -193.83,3.79 -345.72,19.06 -455.7,45.73 -125.97,-6.36 -224.97,51.78 -297.13,174.41 -16.72,28.42 -30.82,59.9 -42.31,94.45 -32.22,154.9 -29.46,314.21 8.35,477.92 37.77,163.67 104.68,309.15 200.76,436.4 36.53,48.02 86.56,90.72 150.07,128.09 122.58,72.13 198.09,84.08 226.41,35.96 2.59,-4.41 5.78,-13.58 9.56,-27.53 3.81,-13.98 7.64,-24.24 11.49,-30.81"
         style="fill:#ed1a31;fill-opacity:1;fill-rule:nonzero;stroke:none"
         id="path26" />
      <path
         d="m 5212.6,5112.4 c 24.52,10.98 48.71,22.47 72.56,34.52 29.08,10.86 56.32,13.93 81.76,9.18 l 20.66,-29.27 c -16.49,-11.88 -47.04,-31.1 -91.67,-57.67 -28.17,-14.73 -49.87,-31.36 -65.12,-49.93 14.6,-177.89 51.85,-310.81 111.71,-398.85 8.09,-12.87 17.54,-23.77 28.39,-32.65 10.82,-8.9 25.34,-7.63 43.58,3.85 10.72,6.73 22.24,16.96 34.56,30.7 11.13,8.48 24.74,29.04 40.91,61.65 16.15,32.6 35.69,56.86 58.6,72.78 17.11,-70.05 -7.6,-140.2 -74.12,-210.48 -8.31,-8.2 -16.22,-14.69 -23.71,-19.4 -28.94,-18.21 -57.2,-23.25 -84.74,-15.14 -38.86,18.94 -72.33,49.52 -100.36,91.75 -39.24,57.59 -68.38,137.29 -87.48,239.02 -1.44,26.03 -8.33,64.35 -20.67,114.94 -36.87,-24.7 -57.91,-62.63 -63.12,-113.77 -18.62,-13.22 -44.45,-5.51 -77.41,23.14 -5.27,13.13 -0.49,34.09 14.33,62.88 7.32,24.03 22.69,47.17 46.12,69.41 21.56,18.04 42.8,36.63 63.68,55.76 -11.65,130.34 -35.46,245.54 -71.46,345.61 0.75,15.42 5.41,25.85 14,31.26 13.26,9.8 33.02,8.17 59.26,-5 42.9,-75.35 67.08,-178.02 72.55,-308.06 -1.5,-2.42 -2.42,-4.51 -2.81,-6.23"
         style="fill:#fffcf6;fill-opacity:1;fill-rule:nonzero;stroke:none"
         id="path28" />
      <path
         d="m 6002.75,4948.12 c -8.41,-12.81 -21.33,-35.09 -38.67,-66.97 -13.28,-9.83 -41.19,-15.42 -83.74,-16.76 -6.46,7.89 -19.87,19.66 -40.17,35.33 -20.33,15.63 -34.17,29.36 -41.61,41.17 -2.52,-15.06 -2.99,-27.35 -1.51,-36.86 -8.65,-74.28 -14.17,-116.65 -16.55,-127.13 -14.26,-46.35 -40.73,-77.98 -79.48,-94.88 -43.12,4.3 -78.48,28.42 -106.15,72.39 -47.88,76.13 -76.77,138.75 -86.74,187.87 -27.21,126.53 -9.68,263.99 52.6,412.42 l 25.73,16.19 c 24.66,15.5 46.11,8.79 64.32,-20.17 6.07,-9.65 14.99,-30.97 26.76,-63.97 3.4,-17.33 3.07,-42.95 -0.99,-76.93 1.52,-9.54 -6.63,-25.15 -24.43,-46.8 -12.18,31.24 -17.09,58.06 -14.74,80.52 -0.96,3.88 -3.66,14.14 -8.14,30.79 -0.28,2.8 -1.76,6.36 -4.45,10.67 -2.04,3.21 -4.94,6.61 -8.71,10.24 2.68,7.64 3,13.1 0.97,16.31 -7.1,-2.99 -12.63,-19.16 -16.57,-48.58 -1.87,-4.18 -4.21,-12.39 -6.98,-24.59 -30.87,-195.99 -15,-346.12 47.6,-450.39 23.84,-28.43 44.27,-39.5 61.32,-33.26 30.37,32.56 44.48,80.33 42.29,143.31 13.16,45.66 9.63,110.78 -10.63,195.33 -5.06,34.2 -25.91,116.14 -62.53,245.73 -1.8,12.33 4.96,27.81 20.22,46.39 16.39,-4.67 28.63,-13.42 36.73,-26.29 4.72,-7.51 8.96,-19.04 12.78,-34.6 5.81,-18.79 9.88,-31.21 12.2,-37.23 31.29,-144.94 59.07,-236.68 83.35,-275.27 31.71,-50.41 63.45,-78.32 95.3,-83.72 3.61,3.74 12.63,19.17 27.05,46.2 12.57,22.85 20.98,35.63 25.27,38.34 4.44,-4.72 8.36,-9.72 11.72,-15.07 12.82,-20.39 15.01,-36.97 6.58,-49.73"
         style="fill:#fffcf6;fill-opacity:1;fill-rule:nonzero;stroke:none"
         id="path30" />
      <path
         d="m 5939.72,5373.09 c 5.97,66.61 15.42,131.26 28.34,194.03 12.91,62.72 40.54,110.41 82.88,143.03 19,14.94 39.8,23.53 62.35,25.75 21.91,-8.67 39.66,-21.45 53.28,-38.31 6.07,-9.65 20.32,-41.86 42.77,-96.55 l -20.49,-17.38 c -7.27,4.41 -23.97,23.82 -50.12,58.26 -14.96,19 -28.22,29.38 -39.76,31.11 -42.43,-49.14 -69.77,-112.73 -82.03,-190.77 -6.88,-34.27 -13.23,-68.18 -19.05,-101.76 -6.33,-39.89 -5.84,-74.02 1.5,-102.3 -6.83,-5.81 -5.01,-24.13 5.4,-54.97 6.75,-22.68 9.69,-38.06 8.78,-46.09 1.16,-23.23 9.27,-68.25 24.36,-135.08 6.46,-7.93 17.59,-25.62 33.38,-53.07 9.86,-25.22 7.89,-45.89 -5.86,-62.05 -9.02,4.82 -14.67,4.25 -16.91,-1.66 -2.7,-7.65 -6.14,-12.83 -10.43,-15.53 -8.58,-5.4 -20.47,-3.16 -35.63,6.67 -21.81,72.76 -74.72,240.13 -158.65,502.07 -10.34,6.89 -17.52,13.56 -21.56,20 -7.41,11.75 -4.61,23.93 8.39,36.6 31.34,28.69 54.49,33.49 69.46,14.49 1.34,-2.15 3.61,-9.32 6.79,-21.52 3.21,-12.23 10.38,-26.02 21.57,-41.43 -5.75,-5.13 -8.51,-9.1 -8.23,-11.9 1.36,-2.17 5.26,-7.19 11.73,-15.08 l 4.28,-17.5 c 2.02,-3.23 3.15,-6.26 3.46,-9.06"
         style="fill:#fffcf6;fill-opacity:1;fill-rule:nonzero;stroke:none"
         id="path32" />
      <path
         d="m 6389.87,5852.87 c 24.52,10.97 48.71,22.47 72.56,34.52 29.08,10.86 56.33,13.93 81.77,9.17 l 20.66,-29.27 c -16.48,-11.88 -47.05,-31.09 -91.68,-57.66 -28.15,-14.73 -49.86,-31.36 -65.1,-49.93 14.6,-177.89 51.83,-310.82 111.69,-398.86 8.09,-12.87 17.54,-23.76 28.39,-32.65 10.82,-8.9 25.35,-7.62 43.6,3.85 10.7,6.74 22.22,16.96 34.55,30.71 11.12,8.47 24.74,29.03 40.91,61.65 16.14,32.59 35.68,56.85 58.6,72.77 17.12,-70.04 -7.6,-140.19 -74.12,-210.47 -8.3,-8.2 -16.22,-14.69 -23.71,-19.41 -28.95,-18.2 -57.2,-23.25 -84.75,-15.14 -38.85,18.94 -72.31,49.52 -100.35,91.76 -39.25,57.59 -68.4,137.28 -87.49,239.01 -1.44,26.03 -8.31,64.35 -20.66,114.94 -36.87,-24.69 -57.9,-62.62 -63.12,-113.77 -18.63,-13.22 -44.44,-5.51 -77.41,23.14 -5.26,13.13 -0.5,34.09 14.33,62.89 7.32,24.03 22.69,47.16 46.12,69.41 21.55,18.04 42.79,36.62 63.68,55.76 -11.64,130.33 -35.47,245.53 -71.46,345.6 0.75,15.42 5.41,25.85 14,31.26 13.26,9.81 33.03,8.17 59.26,-4.99 42.9,-75.36 67.07,-178.03 72.55,-308.06 -1.5,-2.42 -2.44,-4.51 -2.82,-6.23"
         style="fill:#fffcf6;fill-opacity:1;fill-rule:nonzero;stroke:none"
         id="path34" />
      <path
         d="m 7254.37,5827.36 c -6.53,-20.59 -13.37,-46.57 -20.53,-78 -17.78,-33.63 -36.3,-56.5 -55.6,-68.63 -28.94,-18.22 -60.58,-11.96 -94.91,18.85 -4.19,1.86 -10.69,7.48 -19.58,16.86 -15.08,14.44 -24.79,20.34 -29.05,17.65 -1.09,-0.68 -11.48,-54.36 -31.16,-161.01 -17.43,-60.35 -54.56,-114.35 -111.32,-162.05 -51.59,15.46 -91.9,46.2 -120.9,92.31 -12.8,20.36 -26.46,49.19 -40.93,86.49 -17.85,42.64 -30.96,71.79 -39.33,87.49 -34.49,90.54 -53.71,187.66 -57.61,291.47 10.44,9.54 25.66,13.89 45.67,13.02 8.62,-6.58 14.94,-13.06 18.99,-19.49 5.41,-8.59 8.53,-23.08 9.39,-43.47 1.41,-26.05 2.93,-41.58 4.56,-46.51 14.54,-61.21 38,-143.71 70.39,-247.53 14.71,-28.16 28.15,-51.88 40.28,-71.18 19.57,-31.11 36.05,-51.39 49.52,-60.88 25.18,21.81 42.45,43.15 51.78,64 0.39,1.71 9.31,26.78 26.77,75.19 -1.94,19.72 1.6,73.57 10.63,161.56 6.65,65.52 1.52,117.67 -15.36,156.44 -14.88,87.89 -22.09,161.18 -21.58,219.86 10.81,23.26 25.18,27.8 43.07,13.63 9.29,-7.64 16.64,-15.75 22.02,-24.31 10.12,-16.08 17.03,-40.18 20.75,-72.25 4.68,-35.99 9.63,-60.54 14.91,-73.66 -5.75,-57.5 11.44,-125.24 51.54,-203.28 4.43,-4.71 15.15,-18.17 32.13,-40.38 13.61,-16.9 26.25,-23.9 37.93,-21.05 12.97,12.66 23,26.44 30.08,41.38 10.13,24.33 16.68,38.89 19.62,43.76 4.78,20.96 12.74,49.88 23.93,86.87 l 27.38,-0.73 c 13.15,-35.15 15.29,-65.96 6.52,-92.42"
         style="fill:#fffcf6;fill-opacity:1;fill-rule:nonzero;stroke:none"
         id="path36" />
      <path
         d="m 7426.02,5879.21 c 94.29,123.63 143.99,261.15 149.08,412.49 -2.32,6.02 -4.57,20.31 -6.78,42.88 -2.21,22.53 -6.68,39.18 -13.43,49.91 -22.92,36.44 -62.9,46.48 -119.92,30.07 -34.47,-14.22 -68.07,-28.6 -100.77,-43.18 -3.36,-6.61 -23.56,-32.77 -60.61,-78.52 -24.73,-32.04 -38.14,-60.68 -40.23,-85.91 1.22,-6.74 -1.54,-24.93 -8.3,-54.61 0.27,-2.84 0.05,-17.92 -0.68,-45.31 -42.31,48.19 -65.95,77.48 -70.94,87.81 2.57,83.89 42.5,164.39 119.74,241.41 74.11,51.1 154.87,74.96 242.29,71.59 60.49,-24.81 100.52,-52.76 120.07,-83.85 11.47,-18.25 17.78,-38.97 18.9,-62.18 -8.59,-5.4 -11.04,-12.21 -7.39,-20.37 3.65,-8.19 6.59,-16.43 8.84,-24.73 2.23,-8.35 -0.26,-16.27 -7.49,-23.79 -6.52,-72.95 -23.15,-150 -49.89,-231.15 -31.58,-90.21 -68.35,-158.98 -110.39,-206.35 -17.42,-19.93 -27.96,-34.04 -31.69,-42.38 -7.48,-16.66 -4.09,-34 10.21,-51.94 19.34,-52.15 45.67,-132.11 79.02,-239.84 -2.38,-10.48 3.57,-30.66 17.9,-60.57 19.1,-61.29 45.29,-160.06 78.58,-296.23 -2.8,-0.27 -13.87,-6.49 -33.18,-18.63 -10.03,-7.79 -21.25,-6.63 -33.64,3.53 -13.19,18.63 -24,48.87 -32.37,90.74 -8.38,41.86 -17.98,71.39 -28.76,88.53 -4.04,6.44 -8.62,12.54 -13.74,18.29 0.88,20.02 -5.03,48.47 -17.77,85.34 -14.34,41.87 -22.03,70.71 -23,86.55 -9.64,34.33 -24.09,85.85 -43.34,154.55 -16.83,55.28 -40.66,103.88 -71.52,145.81 8.03,11 9.48,25.38 4.31,43.11 -5.27,13.13 -10.34,27.16 -15.22,42.05 -12.54,17.53 -22.47,40.47 -29.8,68.79 -9.64,34.34 -16.95,56.67 -21.94,67.01 -1.35,2.12 -11.54,21.91 -30.59,59.32 -12.68,24.91 -14.95,45.2 -6.81,60.8 6.66,13.18 25.32,20.41 55.92,21.71 5.64,0.53 13.41,2.44 23.35,5.71 2.19,-10.62 11.12,-37.9 26.82,-81.89 14.85,-35.56 20.86,-61.72 17.95,-78.5 14.16,-22.52 27.07,-58.55 38.77,-108.04 5.11,-5.77 11.26,-19.12 18.44,-40.03"
         style="fill:#fffcf6;fill-opacity:1;fill-rule:nonzero;stroke:none"
         id="path38" />
      <path
         d="m 6644.67,3342.16 c -5.19,1.39 -10.94,2.47 -17.21,3.24 -37.36,-69.73 -53.07,-159.17 -47.23,-268.33 5.48,3.15 10.26,8.82 14.32,17.01 12.9,41.03 25.83,82.07 38.73,123.14 12.24,52.33 16.05,93.99 11.39,124.94 z m 302.14,-304 -2.1,-7.78 c -3.6,-6.47 -2.63,-13.23 2.9,-20.26 -49.93,-116.43 -99.95,-191.99 -150.11,-226.71 -29.02,-18.15 -61.27,-29.42 -96.75,-33.78 -31.75,-0.73 -58.31,7.33 -79.74,24.27 -17.79,13.11 -40.03,39.06 -66.7,77.79 -65.83,193.02 -61.53,375.98 12.87,548.91 3.75,3.59 15.12,13.08 34.08,28.38 15.66,13.4 32.11,18.48 49.33,15.24 17.22,-3.24 30.89,-13.66 40.99,-31.21 6,-15.56 12.25,-30.22 18.76,-44.02 17.97,-74.42 -3.34,-184.63 -64.01,-330.6 -3.41,-9.3 -18.38,-25.21 -44.86,-47.75 -15.67,-13.4 -18.22,-28.03 -7.64,-43.85 -0.37,-32.39 6.55,-58.37 20.75,-77.95 5.06,-8.8 18.92,-22.75 41.62,-41.81 33.8,-15.61 71.58,-11.41 113.32,12.61 l 3.74,8.73 c 17.54,10.1 38.23,30.03 62.02,59.82 19.99,36.34 53.68,90.81 101.05,163.4 3.62,-3.78 6.39,-7.28 8.29,-10.58 3.79,-6.58 4.52,-14.21 2.19,-22.85"
         style="fill:#fffcf6;fill-opacity:1;fill-rule:nonzero;stroke:none"
         id="path40" />
      <path
         d="m 7243.87,3516.08 c 13.17,-40.66 26.58,-80.45 40.22,-119.35 17.12,-50.1 33.27,-88.27 48.43,-114.62 27.82,-48.32 64.74,-83.31 110.86,-104.99 -9.09,-9.62 -18.02,-16.95 -26.79,-22 -15.39,-8.86 -31.95,-11.82 -49.71,-8.88 -41.71,24.21 -77.09,61.56 -106.16,112.07 -18.32,31.83 -36.45,74.74 -54.38,128.74 l -43.29,128.54 -3.54,2.35 c -23.4,-55.88 -38.68,-138.47 -45.89,-247.84 -7.95,-115.67 -19.54,-198.35 -34.8,-248.03 -11.59,-15.44 -23.41,-26.63 -35.48,-33.57 -6.59,-3.8 -13.78,-6.51 -21.66,-8.09 -26.88,3.51 -45.73,24.82 -56.52,63.93 -15.1,54.13 -34.1,126.5 -57.01,217.1 -21.95,83.83 -45.41,155.07 -70.43,213.76 1.98,14.3 8.48,24.61 19.46,30.94 10.96,6.31 24.6,6.11 40.89,-0.57 16.27,-6.73 26.49,-16.21 30.61,-28.43 l 96.97,-332.22 c -2.58,14.59 -0.43,36.27 6.39,65.07 11.13,110.16 19.23,179.87 24.32,209.11 14.19,76.86 36.38,143.71 66.54,200.53 36.22,20.85 65.4,12.06 87.52,-26.36 4.42,-7.69 9.98,-20.56 16.72,-38.6 6.73,-18.04 12.32,-30.92 16.73,-38.59"
         style="fill:#fffcf6;fill-opacity:1;fill-rule:nonzero;stroke:none"
         id="path42" />
      <path
         d="m 7604.47,3361.91 c 99.06,119.85 154.09,255.32 165.1,406.34 -2.08,6.1 -3.77,20.48 -5.09,43.12 -1.33,22.59 -5.15,39.41 -11.47,50.39 -21.48,37.31 -61.03,48.9 -118.66,34.74 -35,-12.85 -69.13,-25.92 -102.38,-39.21 -3.62,-6.46 -24.82,-31.82 -63.63,-76.08 -25.97,-31.05 -40.49,-59.14 -43.57,-84.27 0.96,-6.78 -2.52,-24.85 -10.43,-54.25 0.17,-2.84 -0.64,-17.91 -2.45,-45.24 -40.4,49.81 -62.87,80 -67.45,90.51 5.86,83.74 48.9,162.6 129.1,236.55 76.04,48.16 157.68,68.84 244.9,62.05 59.48,-27.16 98.38,-56.66 116.7,-88.48 10.74,-18.69 16.23,-39.64 16.46,-62.88 -8.8,-5.06 -11.52,-11.76 -8.19,-20.05 3.33,-8.33 5.95,-16.69 7.86,-25.07 1.91,-8.43 -0.89,-16.24 -8.4,-23.48 -9.38,-72.63 -29.01,-148.98 -58.91,-229.02 -35.08,-88.91 -74.52,-156.17 -118.37,-201.87 -18.18,-19.24 -29.29,-32.92 -33.34,-41.11 -8.12,-16.36 -5.41,-33.8 8.17,-52.3 17.29,-52.87 40.48,-133.79 69.58,-242.75 -2.79,-10.38 2.38,-30.76 15.52,-61.22 16.67,-61.99 39,-161.7 66.93,-299.08 -2.82,-0.16 -14.12,-5.94 -33.88,-17.31 -10.34,-7.4 -21.49,-5.8 -33.48,4.84 -12.45,19.14 -22.07,49.77 -28.8,91.93 -6.73,42.17 -15.17,72.05 -25.27,89.6 -3.79,6.58 -8.12,12.86 -13.02,18.81 1.66,19.96 -3.12,48.63 -14.41,85.97 -12.69,42.4 -19.25,71.51 -19.6,87.38 -8.29,34.69 -20.7,86.73 -37.26,156.12 -14.64,55.91 -36.55,105.4 -65.75,148.5 8.45,10.69 10.45,24.99 5.99,42.91 -4.76,13.32 -9.27,27.54 -13.56,42.61 -11.84,18.02 -20.88,41.32 -27.09,69.91 -8.29,34.69 -14.72,57.3 -19.3,67.81 -1.25,2.19 -10.68,22.36 -28.24,60.48 -11.7,25.39 -13.17,45.74 -4.43,61.02 7.16,12.9 26.1,19.41 56.73,19.51 5.65,0.31 13.5,1.91 23.55,4.79 1.78,-10.7 9.62,-38.31 23.6,-82.89 13.44,-36.1 18.44,-62.49 14.86,-79.13 13.27,-23.06 24.77,-59.57 34.51,-109.47 4.88,-5.98 10.5,-19.55 16.87,-40.73"
         style="fill:#fffcf6;fill-opacity:1;fill-rule:nonzero;stroke:none"
         id="path44" />
      <path
         d="m 8383.67,3775.37 c -8.92,-12.47 -22.7,-34.24 -41.26,-65.41 -13.66,-9.31 -41.77,-13.8 -84.34,-13.47 -6.15,8.14 -19.08,20.42 -38.76,36.88 -19.7,16.41 -33.01,30.67 -39.97,42.76 -3.1,-14.94 -4.06,-27.21 -2.94,-36.77 -11.55,-73.88 -18.72,-116 -21.52,-126.38 -16.07,-45.76 -43.75,-76.33 -83.14,-91.7 -42.91,5.99 -77.3,31.47 -103.22,76.49 -44.86,77.94 -71.3,141.65 -79.32,191.12 -22.25,127.5 0.65,264.17 68.7,410.04 l 26.34,15.17 c 25.25,14.52 46.41,6.98 63.47,-22.67 5.69,-9.87 13.77,-31.53 24.25,-64.96 2.71,-17.45 1.38,-43.04 -4.01,-76.84 1.14,-9.59 -7.6,-24.87 -26.25,-45.8 -10.93,31.69 -14.8,58.68 -11.56,81.03 -0.82,3.91 -3.11,14.28 -6.93,31.09 -0.18,2.81 -1.52,6.42 -4.04,10.83 -1.9,3.29 -4.67,6.79 -8.29,10.57 2.96,7.53 3.5,12.97 1.61,16.26 -7.21,-2.7 -13.38,-18.65 -18.47,-47.89 -2.02,-4.11 -4.69,-12.22 -7.94,-24.3 -38.51,-194.63 -28.54,-345.27 29.94,-451.91 22.72,-29.34 42.69,-41.2 59.97,-35.63 31.62,31.35 47.59,78.53 47.87,141.55 14.93,45.11 13.95,110.31 -2.98,195.59 -3.73,34.37 -21.34,117.06 -52.87,247.99 -1.31,12.4 6.05,27.59 22.01,45.56 16.22,-5.3 28.1,-14.53 35.68,-27.71 4.43,-7.68 8.21,-19.38 11.42,-35.07 5.07,-19 8.65,-31.57 10.73,-37.67 25.59,-146.05 49.77,-238.81 72.52,-278.33 29.7,-51.61 60.35,-80.74 91.95,-87.38 3.75,3.6 13.37,18.66 28.85,45.1 13.44,22.34 22.34,34.79 26.75,37.32 4.24,-4.88 7.96,-10.03 11.12,-15.51 12.01,-20.87 13.54,-37.53 4.63,-49.95"
         style="fill:#fffcf6;fill-opacity:1;fill-rule:nonzero;stroke:none"
         id="path46" />
      <path
         d="m 8547.64,3939.91 c -0.4,-22.16 -3.27,-55.26 -8.64,-99.25 -27.65,-50.99 -51.68,-81.6 -72.06,-91.9 -20.4,-10.27 -51.86,-6.45 -94.31,11.49 -13.55,18.5 -26.03,37.62 -37.41,57.38 -66.35,115.26 -114.73,238.69 -145.16,370.25 -4.63,20.7 -10.66,65.45 -18.1,134.27 2.17,11.46 8.73,20.37 19.71,26.69 10.95,6.31 23.63,8.47 37.92,6.48 14.31,-2 24.3,-7.94 29.99,-17.81 3.16,-5.51 4.36,-11.4 3.59,-17.67 -1.43,-43.22 3.91,-95.68 16.05,-157.37 l 62.35,-192.11 c 13.16,-40.66 37.74,-87.17 73.74,-139.52 5.97,-5.32 16.52,-10.97 31.63,-16.87 5.01,1.42 9.53,8.78 13.59,22.08 4.05,13.29 7.4,21.43 10.06,24.43 8.13,16.36 16.45,43.79 24.96,82.33 8.53,38.5 19.35,66.66 32.48,84.46 l 12.29,66.26 c 18.15,-77.23 20.57,-128.45 7.32,-153.62 z m -309.2,598.08 -3.04,-6.14 c -0.94,-3.48 0.02,-10.22 2.89,-20.25 -50.16,-34.74 -85.42,-38.21 -105.79,-10.47 -10.09,17.55 -10.4,32 -0.83,43.36 3.75,3.6 16.93,11.18 39.51,22.75 5.49,3.15 11.66,8.9 18.57,17.26 10.67,1.76 25.69,-2.74 45.05,-13.52 6.15,-8.18 7.36,-19.15 3.64,-32.99"
         style="fill:#fffcf6;fill-opacity:1;fill-rule:nonzero;stroke:none"
         id="path48" />
      <path
         d="m 3978.18,2276.29 c 4.84,99.71 4.45,203.25 -16.48,301.63 -10.38,48.88 -22.48,96.27 -36.23,142.26 -15.92,53.33 -32.24,88.08 -62.15,150.93 -36.39,76.45 -71.61,142.19 -105.73,197.24 -47.55,76.83 -92.76,141.72 -135.63,194.66 -38.5,47.62 -81.44,99.31 -128.76,154.99 -155.47,183.1 -339.52,340.51 -540.43,472.94 -82.69,54.5 -169.05,89.01 -260.26,128.37 -105.18,45.36 -228.86,81.67 -371.21,108.76 -86.05,16.4 -163.51,28.81 -232.38,37.32 -47.25,5.78 -96.04,1.57 -144.54,4.45 -65.51,3.99 -134.38,2.11 -206.53,-5.46 -6.87,-0.7 -13.27,3.75 -14.92,10.46 -10.62,44.35 56.23,60.91 89.34,66.76 56.29,9.92 112.28,19.05 167.95,27.25 18.82,2.74 37.8,4.77 57.08,6.09 24.21,1.64 48.5,5.7 72.93,2.89 53.1,-6.32 104.4,-9.76 157.5,-19.05 47.87,-8.43 96.36,-12.8 142.9,-23.35 30.76,-7.02 62.08,-10.93 92.69,-18.58 145.47,-36.15 286.88,-92.45 419.47,-154.68 40.99,-19.21 89.71,-48.1 146.17,-86.59 65.67,-44.75 124.16,-86.36 175.62,-124.78 16.47,-12.41 47.31,-38.1 92.52,-77.14 97.22,-83.94 181.08,-166.55 251.6,-247.83 70.82,-81.6 146.64,-166.78 207.62,-251.81 50.14,-70.04 93,-136.8 128.68,-200.29 22.89,-40.67 50.21,-93.85 82,-159.67 25.76,-53.33 45.21,-101.43 58.33,-144.45 29.74,-97.45 49.42,-187.63 58.87,-270.63 5.86,-51.46 7.73,-115.33 5.47,-191.53 -1.41,-48.57 -7.11,-98.47 -17.1,-149.61 -37.1,-189.89 -95.89,-367.06 -176.4,-531.5 -26.23,-53.72 -58.02,-106.5 -87.92,-158.74 -22.02,-38.42 -63.48,-64.89 -108.23,-52.32 -15.85,4.46 -26.7,14.84 -32.4,31.16 -6.48,18.51 -4.76,39.04 5.15,61.68 13.67,31.16 30.69,66.76 51.15,106.74 30.14,58.95 45.28,88.47 45.37,88.7 73.55,159.75 128.84,324.67 159.68,491.84 4.76,25.84 7.89,52.78 9.21,80.89 v 0"
         style="fill:#fffcf6;fill-opacity:1;fill-rule:nonzero;stroke:none"
         id="path50" />
      <path
         d="m 2286.94,3133.47 c -35.84,16.79 -69.34,30.37 -100.49,40.76 -100.19,33.42 -201.86,68.79 -305.32,80.27 -62.46,6.94 -123.37,3.27 -182.71,-10.86 -32.88,-7.81 -62.86,-13.82 -90.11,-18.11 -8.67,-1.33 -17.65,-0.78 -26.94,1.64 -23.98,6.32 -27.33,34.9 -8.51,49.19 30.45,23.11 68.56,41.7 114.31,55.67 79.72,24.36 155.47,34.82 227.31,31.39 33.96,-1.64 70.97,-7.42 110.88,-17.34 182.48,-45.44 341.85,-100.09 492.87,-199.03 94.71,-62.07 172.02,-120.47 231.99,-175.29 41.31,-37.71 87.38,-83 138.05,-135.86 33.81,-35.22 64.66,-71.36 92.61,-108.38 38.5,-50.98 78.94,-100.88 112.6,-155.61 70.43,-114.63 124.86,-229.48 140.48,-359.96 13.81,-115.64 11.01,-229.95 -8.44,-343.09 -6.33,-37.17 -15.62,-79.02 -27.87,-125.48 -13.12,-50.12 -26.24,-90.89 -39.36,-122.27 -30.22,-72.46 -72.46,-142.35 -126.73,-209.65 -5,-6.17 -11.64,-9.45 -19.91,-10 -44.04,-2.81 -32.88,47.01 -21.32,70.2 24.13,48.49 41.15,91.43 51.14,128.75 19.68,73.87 31.79,132.2 36.31,174.91 3.6,33.97 8.13,70.58 13.51,110.02 12.34,89.4 16.24,176.07 11.8,260.01 -4.61,85.19 -23.74,163.81 -57.4,236.04 -30.84,66.13 -61.69,120.79 -92.53,163.81 -30.45,42.56 -64.81,88.24 -103.07,137.11 -12.96,16.63 -26.55,32.33 -40.84,47.24 -59.97,62.54 -118.84,128.21 -185.84,183.42 -104.56,86.12 -214.42,163.42 -336.47,220.5 v 0"
         style="fill:#fffcf6;fill-opacity:1;fill-rule:nonzero;stroke:none"
         id="path52" />
      <path
         d="m 2145.53,2557.85 c 174.68,-75.5 315.15,-223.47 401.28,-393.61 53.41,-105.56 87.45,-214.95 102.05,-328.17 9.22,-71.52 2.58,-136.57 -19.98,-195.21 -18.27,-47.47 -62.32,-113.92 -119.87,-96.43 -32.4,9.84 -28.03,51.07 -14.36,73.47 22.17,36.08 33.65,76.61 34.51,121.66 1.02,53.25 -0.78,111.81 -12.49,163.74 -27.57,122.35 -72.31,229.56 -134.23,321.53 -17.26,25.61 -38.89,49.97 -58.88,73.56 -53.64,63.24 -117.05,111.34 -193.1,152.18 -75.59,40.68 -149.77,73.39 -222.62,98.22 -25.22,8.67 -69.42,20.7 -132.59,36.08 -51.38,12.57 -98.7,15.61 -150.55,15.93 -31.62,0.23 -56.06,12.88 -73.32,37.79 -1.72,2.5 -0.15,5.85 2.81,6.24 93.16,11.25 192.79,20.7 286.11,13.05 39.28,-3.21 77.53,-13.52 114.7,-25.15 62.78,-19.75 128.37,-48.02 190.53,-74.88 v 0"
         style="fill:#fffcf6;fill-opacity:1;fill-rule:nonzero;stroke:none"
         id="path54" />
      <path
         d="m 1758.77,2073.35 c 2.58,-0.85 5.4,-0.23 7.34,1.57 53.03,47.86 134.62,85.88 206.93,74.64 62.62,-9.68 101.28,-45.44 115.88,-107.28 19.6,-82.85 -0.16,-160.69 -35.84,-241.19 -39.36,-88.7 -100.5,-159.99 -163.28,-232.14 -14.68,-16.79 -21.55,-37.01 -32.09,-56.14 -18.74,-34.28 -74.49,-30.76 -105.49,-16.56 -69.89,31.94 -127.44,80.82 -172.73,146.57 -38.34,55.67 -71.6,116.41 -99.63,182.24 -15.86,37.24 -26.01,75.03 -30.46,113.45 -11.24,97.13 45.14,187.94 142.04,206.76 57.16,11.09 120.64,-23.97 158.82,-66.45 2.35,-2.58 5.16,-4.45 8.51,-5.47 v 0"
         style="fill:#ed1a31;fill-opacity:1;fill-rule:nonzero;stroke:none"
         id="path56" />
      <path
         d="m 0,873.5 h 31.3281 v 79.691 H 6.98047 v 9.2 c 12.76563,1.699 20.93753,4.25 27.92183,8 H 45.4688 V 873.5 H 73.7305 V 861.75 H 0 v 11.75"
         style="fill:#b1b1b0;fill-opacity:1;fill-rule:nonzero;stroke:none"
         id="path58" />
      <path
         d="m 139.141,917.602 c 0,6.98 4.941,11.238 10.566,11.238 5.613,0 10.559,-4.258 10.559,-11.238 0,-7.153 -4.946,-11.411 -10.559,-11.411 -5.625,0 -10.566,4.258 -10.566,11.411 z m 36.445,-1.192 c 0,31.16 -10.731,44.61 -25.879,44.61 -15.156,0 -25.891,-13.45 -25.891,-44.61 0,-31.16 10.735,-45.301 25.891,-45.301 15.148,0 25.879,14.141 25.879,45.301 z m -64.883,0 c 0,36.442 14.817,56.031 39.004,56.031 24.18,0 38.992,-19.589 38.992,-56.031 0,-36.097 -14.812,-56.699 -38.992,-56.699 -24.187,0 -39.004,20.602 -39.004,56.699"
         style="fill:#b1b1b0;fill-opacity:1;fill-rule:nonzero;stroke:none"
         id="path60" />
      <path
         d="m 254.277,917.602 c 0,6.98 4.942,11.238 10.567,11.238 5.617,0 10.554,-4.258 10.554,-11.238 0,-7.153 -4.937,-11.411 -10.554,-11.411 -5.625,0 -10.567,4.258 -10.567,11.411 z m 36.446,-1.192 c 0,31.16 -10.735,44.61 -25.879,44.61 -15.156,0 -25.891,-13.45 -25.891,-44.61 0,-31.16 10.735,-45.301 25.891,-45.301 15.144,0 25.879,14.141 25.879,45.301 z m -64.883,0 c 0,36.442 14.812,56.031 39.004,56.031 24.179,0 38.996,-19.589 38.996,-56.031 0,-36.097 -14.817,-56.699 -38.996,-56.699 -24.192,0 -39.004,20.602 -39.004,56.699"
         style="fill:#b1b1b0;fill-opacity:1;fill-rule:nonzero;stroke:none"
         id="path62" />
      <path
         d="m 415.906,887.969 c 0,13.633 -5.789,19.254 -13.113,19.254 -7.324,0 -13.113,-5.621 -13.113,-19.254 0,-13.278 5.789,-19.746 13.113,-19.746 7.324,0 13.113,6.468 13.113,19.746 z m -26.394,45.472 28.437,34.571 8.352,-7.66 -31.172,-32.02 z m -10.391,-45.472 c 0,17.711 9.883,27.761 23.672,27.761 13.801,0 23.672,-10.05 23.672,-27.761 0,-17.707 -9.871,-28.258 -23.672,-28.258 -13.789,0 -23.672,10.551 -23.672,28.258 z m -8.848,56.711 c 0,13.621 -5.793,19.242 -13.117,19.242 -7.32,0 -13.113,-5.621 -13.113,-19.242 0,-13.278 5.793,-19.75 13.113,-19.75 7.324,0 13.117,6.472 13.117,19.75 z m -36.613,-69.821 31.164,32.012 5.614,-5.101 -28.434,-34.571 z m -0.176,69.821 c 0,17.711 9.875,27.761 23.672,27.761 13.789,0 23.672,-10.05 23.672,-27.761 0,-17.707 -9.883,-28.27 -23.672,-28.27 -13.797,0 -23.672,10.563 -23.672,28.27"
         style="fill:#b1b1b0;fill-opacity:1;fill-rule:nonzero;stroke:none"
         id="path64" />
      <path
         d="m 9638.7,991.551 h 47.59 v -8.078 h -36.25 V 851.859 h 36.25 v -8.07 h -47.59 v 147.762"
         style="fill:#b1b1b0;fill-opacity:1;fill-rule:nonzero;stroke:none"
         id="path66" />
      <path
         d="m 9790.22,951.68 c 0,10.66 -7.73,19.25 -21.99,19.25 -12.02,0 -20.45,-6.867 -20.45,-17.528 0,-13.05 12.55,-18.55 28.87,-23.711 8.94,6.528 13.57,13.918 13.57,21.989 z m 3.61,-54.117 c 0,15.117 -15.29,19.066 -34.36,25.429 -10.65,-5.672 -18.73,-12.711 -18.73,-23.711 0,-12.031 10.83,-20.789 27.66,-20.789 16.16,0 25.43,7.727 25.43,19.071 z m -65.97,0.347 c 0,15.121 11.68,23.711 23.53,29.199 v 0.692 c -9.1,5.672 -16.66,14.09 -16.66,25.601 0,16.84 14.26,28.18 33.84,28.18 21.48,0 34.02,-12.199 34.02,-29.211 0,-10.308 -7.56,-19.762 -16.66,-26.109 v -0.692 c 12.02,-6.019 21.48,-12.89 21.48,-28.519 0,-16.321 -14.27,-29.211 -39.35,-29.211 -24.74,0 -40.2,12.723 -40.2,30.07"
         style="fill:#b1b1b0;fill-opacity:1;fill-rule:nonzero;stroke:none"
         id="path68" />
      <path
         d="m 9845.88,879.352 7.9,8.937 c 5.5,-5.156 13.41,-8.59 21.83,-8.59 17.7,0 33.33,12.543 33.33,49.133 0,26.981 -10.48,41.41 -28.52,41.41 -13.06,0 -23.2,-9.453 -23.2,-23.883 0,-14.949 8.25,-23.199 23.37,-23.199 8.59,0 19.07,4.301 28.52,15.473 l 0.51,-11.172 c -8.93,-9.281 -20.44,-14.949 -31.78,-14.949 -20.27,0 -34.02,11.34 -34.02,33.847 0,20.961 17.01,35.223 36.42,35.223 23.89,0 42.1,-17.519 42.1,-52.75 0,-43.98 -22.16,-60.992 -45.88,-60.992 -13.39,0 -23.36,4.98 -30.58,11.512"
         style="fill:#b1b1b0;fill-opacity:1;fill-rule:nonzero;stroke:none"
         id="path70" />
      <path
         d="m 9986.07,882.449 c 0,8.582 6.19,14.602 13.92,14.602 7.71,0 13.91,-6.02 13.91,-14.602 0,-8.769 -6.2,-14.609 -13.91,-14.609 -7.73,0 -13.92,5.84 -13.92,14.609"
         style="fill:#b1b1b0;fill-opacity:1;fill-rule:nonzero;stroke:none"
         id="path72" />
      <path
         d="m 10077.1,878.32 c 37.1,32.821 57.4,52.059 57.4,70.27 0,12.551 -7.6,21.312 -23.7,21.312 -10.3,0 -19.2,-5.839 -26.3,-13.062 l -8.2,8.082 c 9.9,9.961 20.8,16.66 36.2,16.66 22,0 35.8,-12.883 35.8,-32.301 0,-20.621 -20.7,-41.058 -50.4,-68.039 6.9,0.52 13.9,0.86 20.5,0.86 h 35.9 v -12.2 h -77.2 v 8.418"
         style="fill:#b1b1b0;fill-opacity:1;fill-rule:nonzero;stroke:none"
         id="path74" />
      <path
         d="m 10194.3,879.352 7.9,8.937 c 5.5,-5.156 13.4,-8.59 21.8,-8.59 17.7,0 33.3,12.543 33.3,49.133 0,26.981 -10.4,41.41 -28.5,41.41 -13,0 -23.2,-9.453 -23.2,-23.883 0,-14.949 8.3,-23.199 23.4,-23.199 8.6,0 19.1,4.301 28.5,15.473 l 0.5,-11.172 c -8.9,-9.281 -20.4,-14.949 -31.8,-14.949 -20.2,0 -34,11.34 -34,33.847 0,20.961 17,35.223 36.4,35.223 23.9,0 42.1,-17.519 42.1,-52.75 0,-43.98 -22.1,-60.992 -45.8,-60.992 -13.4,0 -23.4,4.98 -30.6,11.512"
         style="fill:#b1b1b0;fill-opacity:1;fill-rule:nonzero;stroke:none"
         id="path76" />
      <path
         d="m 10345.3,981.922 c 0,6.527 4.8,11 11.3,11 6.6,0 11.4,-4.473 11.4,-11 0,-6.699 -4.8,-10.992 -11.4,-10.992 -6.5,0 -11.3,4.293 -11.3,10.992 z m 5.7,-40.031 h -38.7 v 11.511 h 52.9 v -83.5 h -14.2 v 71.989"
         style="fill:#b1b1b0;fill-opacity:1;fill-rule:nonzero;stroke:none"
         id="path78" />
      <path
         d="m 10448.4,902.371 v 39.52 h -23.7 v 10.648 l 24.2,0.863 1.9,26.797 h 11.8 v -26.797 h 40.9 v -11.511 h -40.9 v -39.692 c 0,-14.949 5,-22.679 21.2,-22.679 7.7,0 13.9,1.55 19.9,3.781 l 3.1,-10.481 c -7.6,-2.75 -15.6,-4.98 -26.1,-4.98 -24.4,0 -32.3,13.922 -32.3,34.531"
         style="fill:#b1b1b0;fill-opacity:1;fill-rule:nonzero;stroke:none"
         id="path80" />
      <path
         d="m 10602.5,991.891 h 12.7 l -56.4,-149.481 h -12.7 l 56.4,149.481"
         style="fill:#b1b1b0;fill-opacity:1;fill-rule:nonzero;stroke:none"
         id="path82" />
      <path
         d="m 10657.5,880.902 6.5,9.45 c 9.6,-6.872 20.9,-11.34 36.2,-11.34 14.1,0 21,5.84 21,12.879 0,6.359 -3.3,10.832 -25.9,15.468 -21.9,4.473 -32.7,11.852 -32.7,24.403 0,13.398 11.9,23.699 34.7,23.699 12.7,0 25.4,-4.981 33.7,-10.648 l -6.9,-9.102 c -7.7,5.32 -17.3,8.762 -28,8.762 -14.1,0 -19.2,-5.672 -19.2,-12.032 0,-7.218 7.2,-10.312 24.4,-13.921 27.6,-6.008 34.3,-12.879 34.3,-25.77 0,-13.57 -13.2,-24.91 -37.1,-24.91 -16.3,0 -30.9,6.012 -41,13.062"
         style="fill:#b1b1b0;fill-opacity:1;fill-rule:nonzero;stroke:none"
         id="path84" />
      <path
         d="m 10778.2,851.859 h 36.3 v 131.614 h -36.3 v 8.078 h 47.6 V 843.789 h -47.6 v 8.07"
         style="fill:#b1b1b0;fill-opacity:1;fill-rule:nonzero;stroke:none"
         id="path86" />
      <path
         d="m 513.32,1063.97 h 96.746 v -16.42 H 536.371 V 780.012 h 73.695 V 763.59 H 513.32 v 300.38"
         style="fill:#b1b1b0;fill-opacity:1;fill-rule:nonzero;stroke:none"
         id="path88" />
      <path
         d="m 9397.26,780.012 h 73.7 v 267.538 h -73.7 v 16.42 h 96.75 V 763.59 h -96.75 v 16.422"
         style="fill:#b1b1b0;fill-opacity:1;fill-rule:nonzero;stroke:none"
         id="path90" />
      <path
         d="M 9328.58,820.07 H 634.434 v 191.49 H 9328.58 V 820.07"
         style="fill:#b1b1b0;fill-opacity:1;fill-rule:nonzero;stroke:none"
         id="path92" />
      <path
         d="m 7535.07,437.969 c 0,10.312 -8.38,18.691 -18.69,18.691 -10.3,0 -18.68,-8.379 -18.68,-18.691 0,-10.297 8.38,-18.688 18.68,-18.688 10.31,0 18.69,8.391 18.69,18.688 z m 33.03,-0.188 c 0,-28.429 -23.03,-51.468 -51.47,-51.468 -28.43,0 -51.47,23.039 -51.47,51.468 0,28.438 23.04,51.469 51.47,51.469 28.44,0 51.47,-23.031 51.47,-51.469"
         style="fill:#fffcf6;fill-opacity:1;fill-rule:nonzero;stroke:none"
         id="path94" />
      <path
         d="m 8458.54,414 0.19,31.422 c 0.12,15.398 7.82,24.09 23.15,26.078 2.18,0.313 4.35,0 6.46,-0.809 11.3,-4.281 16.83,-12.421 16.58,-24.461 l -0.62,-31.359 c -0.07,-4.34 3.47,-7.941 7.82,-7.879 l 71.21,0.488 c 11.49,0.071 19,-5.328 22.6,-16.199 0.74,-2.301 0.94,-4.59 0.62,-6.89 -2.17,-14.219 -10.49,-21.36 -24.89,-21.422 l -69.98,-0.367 c -3.22,-0.071 -5.83,-2.672 -5.89,-5.903 l -0.81,-78.289 c -0.06,-3.73 1.8,-5.59 5.53,-5.648 l 122.86,-0.621 c 12.61,-0.071 19.37,-6.34 20.37,-18.871 l 0.24,-2.86 c 1.06,-12.918 -9.06,-23.91 -21.97,-23.969 l -94.56,-0.242 c -1.99,-0.066 -3.54,-1.617 -3.54,-3.609 l 0.25,-168.8712 c 0,-1.7383 1.37,-3.1094 3.11,-3.1094 l 94.3,0.1328 c 14.59,0 22.23,-7.2617 22.91,-21.8516 0.07,-1.6797 -0.12,-3.3008 -0.55,-4.8476 -3.05,-11.0508 -10.31,-16.64066 -21.8,-16.76175 -37.44,-0.37109 -75.06,-0.44141 -112.93,-0.19141 -21.29,0.13282 -31.35,14.16016 -31.35,33.71096 0.06,61.4692 0.37,121.5122 0.87,180.1212 0.05,3.348 -2.68,6.078 -6.03,6.019 -6.02,-0.058 -10.43,-2.73 -13.35,-7.878 -37.19,-66.192 -75.18,-134.3013 -113.99,-204.2739 -17.88,-32.2188 -58.91,-6.32816 -40.97,25.4609 37.06,65.75 71.33,126.469 102.87,182.16 1,1.68 -0.24,3.789 -2.17,3.789 h -86.55 c -6.52,0 -12.48,3.473 -15.77,9.063 -3.04,5.09 -4.28,10.179 -3.72,15.328 1.55,14.84 9.74,22.289 24.71,22.23 l 121.81,-0.25 c 2.11,-0.058 3.17,1 3.17,3.172 v 83.938 c 0,2.109 -1.06,3.172 -3.17,3.172 l -65.62,-0.129 c -2.67,-0.063 -4.6,-1.243 -5.9,-3.543 l -20.12,-36.508 c -6.27,-11.359 -15.64,-15.449 -28.19,-12.16 -6.27,1.609 -11.23,6.39 -14.9,14.277 -2.67,5.711 -2.42,12.293 0.69,17.82 20.42,36.313 40.54,72.204 60.35,107.782 7.82,14.089 18.68,19.492 32.52,16.199 21.43,-5.149 21.49,-22.41 0.26,-51.84 -3.3,-4.527 -2.18,-6.828 3.47,-6.828 l 34.46,0.18 c 3.91,0.07 5.9,1.988 5.96,5.898 v 0"
         style="fill:#fffcf6;fill-opacity:1;fill-rule:nonzero;stroke:none"
         id="path96" />
      <path
         d="m 9155.83,124.332 c 0,2.398 -1.99,4.328 -4.36,4.328 l -70.65,-0.25 c -2.41,0 -4.34,-1.988 -4.34,-4.359 v -0.25 c 0,-2.41 1.99,-4.328 4.36,-4.328 l 70.66,0.25 c 2.41,0 4.33,1.976 4.33,4.359 v 0.25 z m -119.2,-0.152 c 0,2.3 -1.87,4.172 -4.16,4.172 l -71.4,0.121 c -2.3,0 -4.17,-1.864 -4.17,-4.153 v -0.379 c 0,-2.3 1.87,-4.16 4.16,-4.16 l 71.4,-0.129 c 2.3,0 4.17,1.868 4.17,4.161 v 0.367 m 119.01,39.179 c 0,2.922 -2.42,5.352 -5.34,5.352 h -67.8 c -2.91,0 -5.34,-2.43 -5.34,-5.352 v -0.25 c 0,-2.91 2.43,-5.328 5.34,-5.328 h 67.8 c 2.92,0 5.34,2.418 5.34,5.328 v 0.25 m -118.96,0.141 c 0,2.91 -2.35,5.211 -5.22,5.199 l -69.29,-0.117 c -2.9,0 -5.2,-2.363 -5.2,-5.23 v -0.372 c 0,-2.91 2.36,-5.199 5.22,-5.199 l 69.29,0.121 c 2.91,0 5.2,2.36 5.2,5.219 v 0.379 m -63.07,87.531 c 16.7,-1.801 35.88,-2.242 57.49,-1.179 2.79,0.179 4.22,1.609 4.41,4.339 1.24,18.688 23.71,23.661 36.13,11.86 3.85,-3.59 4.78,-8.75 6.58,-13.41 0.81,-2.051 2.36,-3.102 4.53,-3.102 l 132.56,-0.129 c 8.69,-0.058 13.1,-4.398 13.22,-13.097 v -2.981 c 0.19,-12.91 -6.21,-19.371 -19.12,-19.371 l -124.67,-0.121 c -3.35,0 -6.27,-2.18 -7.2,-5.399 l -0.62,-2.179 c -1,-3.41 1.55,-6.762 5.09,-6.762 27.57,0.25 54.39,0.25 80.4,0 43.46,-0.437 35.82,-51.91 34.4,-79.289 -1.18,-22.8399 -20.43,-32.5899 -41.36,-32.3399 -27.81,0.3086 -52.64,0.3086 -74.5,0.1211 -2.04,-0.0625 -3.1,-1.1211 -3.04,-3.1719 0,-0.25 0,-2.789 0.06,-7.5703 0.07,-2.168 1.12,-3.2305 3.29,-3.2305 l 128.33,-0.3672 c 12.49,-0.0625 19.07,-6.2695 19.81,-18.75 0.31,-4.5312 -1.68,-9.25 -5.84,-14.1015 -2.79,-3.1602 -6.76,-5.0195 -11.05,-5.0899 l -128.14,-0.4296 c -4.29,0 -6.58,-2.1094 -6.89,-6.3907 -2.61,-32.78904 -45.45,-25.21091 -41.42,-1.5586 0.44,2.2969 0.07,4.3477 -1.11,6.2071 -0.81,1.3007 -1.93,1.9922 -3.48,1.9922 l -126.78,-1.0586 c -10.74,-0.1211 -17.94,4.8476 -21.6,14.8984 -0.69,1.9297 -0.87,3.8516 -0.69,5.7812 1.68,13.2774 9.19,19.8594 22.54,19.7383 l 125.79,-1.1797 c 3.04,-0.0586 4.71,1.4883 5.02,4.5313 l 0.5,4.6601 c 0.31,3.2305 -1.18,4.9102 -4.47,4.9688 -23.03,0.3086 -48.3,0.2383 -75.87,-0.1914 -22.78,-0.3672 -39.48,9.4414 -40.85,34.6403 -0.87,15.711 -0.68,30.68 0.5,44.77 1.8,21.789 14.71,32.723 38.8,32.66 27.51,-0.07 52.9,-0.07 76.18,0.121 3.35,0 6.02,2.852 5.77,6.27 l -0.25,3.172 c -0.18,3.039 -1.8,4.527 -4.84,4.527 l -127.77,-0.188 c -10.37,-0.062 -17.14,4.848 -20.3,14.719 -0.81,2.418 -0.81,5.031 -0.13,7.762 2.42,9.5 8.51,14.277 18.25,14.398 l 17.14,0.25 c 2.73,0.059 3.67,1.371 2.86,3.969 -4.66,14.223 0.62,23.473 15.89,27.762 17.45,4.898 35.33,10.301 53.65,16.258 2.79,0.941 3.91,2.8 3.47,5.652 l -0.31,1.859 c -0.25,1.43 -1.61,2.301 -2.98,1.93 l -88.41,-25.949 c -14.41,-4.293 -22.35,0.308 -23.9,13.718 l -0.19,2.11 c -1.24,10.801 3.36,17.699 13.84,20.672 l 99.03,28.437 c 1.12,0.313 1.93,1.242 2.05,2.364 0.31,2.289 -0.99,3.406 -3.85,3.406 -21.85,0.07 -43.52,0.07 -64.94,0 -11.86,0 -18.07,5.902 -18.5,17.761 l -0.12,2.79 c -0.44,10.5 4.65,15.781 15.21,15.781 l 67.3,-0.192 c 2.85,-0.058 5.21,2.231 5.27,5.153 l 0.13,9.058 c 0.06,2.551 -2.05,4.731 -4.6,4.66 l -83.13,-1.05 c -10.68,-0.129 -18.38,4.59 -23.03,14.222 -3.04,6.27 0.62,13.528 10.99,21.848 2.98,2.359 6.7,3.543 10.49,3.48 l 83.75,-1.738 c 2.3,-0.062 3.79,0.93 4.47,3.098 0.81,2.492 0.87,6.461 1.87,8.57 7.2,14.903 18.13,18.621 32.84,11.18 5.9,-2.988 8.82,-7.949 8.88,-14.91 0.19,-52.828 0.24,-103.239 0.24,-151.239 0,-33.711 -38.36,-42.468 -63.2,-47.679 -5.71,-1.18 -5.65,-2.11 0.13,-2.731"
         style="fill:#fffcf6;fill-opacity:1;fill-rule:nonzero;stroke:none"
         id="path98" />
      <path
         d="m 9122.68,293.563 c 0.55,-6.032 0.68,-13.602 -3.85,-18.25 -12.36,-12.852 -39.55,-12.422 -39.74,9.308 -0.5,53.578 -0.56,108.34 -0.18,164.281 0.25,31.227 43.83,27.188 43.58,2.848 -0.06,-1.551 0.12,-3.16 0.56,-4.711 0.37,-1.488 1.74,-2.488 3.22,-2.488 l 86.18,-0.93 c 9.44,-0.121 14.59,-4.84 15.52,-14.219 l 0.25,-2.351 c 1.18,-11.871 -4.16,-17.891 -16.08,-17.949 l -84.37,-0.68 c -2.92,-0.07 -5.22,-2.422 -5.16,-5.281 l 0.25,-9.5 c 0.06,-3.172 1.74,-4.782 4.97,-4.782 l 67.3,-0.617 c 11.74,-0.062 17.2,-5.961 16.45,-17.691 l -0.18,-2.988 c -0.56,-8.5 -5.15,-12.793 -13.66,-12.911 l -70.78,-1.121 c -2.55,-0.058 -3.91,-1.359 -3.98,-3.91 l -0.37,-10.301 c -0.06,-3.539 1.68,-5.347 5.22,-5.347 l 81.33,0.07 c 11.61,0 18.13,-5.773 19.56,-17.262 0.56,-4.781 -1.62,-9.558 -6.64,-14.34 -2.86,-2.73 -6.59,-4.218 -10.56,-4.289 l -85.12,-0.492 c -2.73,0 -3.97,-1.371 -3.72,-4.097 v 0"
         style="fill:#fffcf6;fill-opacity:1;fill-rule:nonzero;stroke:none"
         id="path100" />
      <path
         d="m 4525.57,356.512 -82.57,0.07 c -3.04,0 -5.16,-1.43 -6.28,-4.23 -13.09,-33.02 -25.7,-65.192 -37.8,-96.422 -11.05,-28.801 -29.99,-46.129 -62.03,-48.418 -17.7,-1.25 -33.4,8.629 -33.53,27.929 -0.12,19.809 20.49,28.192 35.45,16.149 2.05,-1.68 5.16,-0.867 6.09,1.609 25.27,64.633 50.79,129.203 76.68,193.711 9.44,23.59 44.2,18.129 46.44,-7.57 0.93,-10.809 -4.97,-20.801 -9.01,-30.551 -0.74,-1.797 0.57,-3.726 2.49,-3.726 26.88,-0.122 54.51,-0.122 82.88,-0.063 6.03,0.063 9.13,3.051 9.19,9.07 0.06,2.301 0.87,4.16 2.48,5.711 23.35,22.16 52.41,0.75 41.85,-26.761 -20.67,-53.77 -41.28,-105.918 -61.9,-156.391 -0.93,-2.43 -0.18,-3.977 2.3,-4.719 8.07,-2.418 15.71,-5.34 22.91,-8.699 19.62,-9.18 16.33,-41.281 -5.47,-45.809 -11.92,-2.492 -24.02,4.457 -35.51,8.129 -2.23,0.739 -3.78,0.059 -4.72,-2.109 -12.17,-29.801 -25.27,-62.961 -39.3,-99.4728 -15.46,-40.1679 -37.37,-62.3281 -82.88,-62.7578 -15.65,-0.1289 -32.04,6.1406 -36.14,22.8399 -2.98,11.9804 -0.12,21.789 8.57,29.3085 13.91,11.9805 28.19,10.6094 42.84,-4.0976 3.6,-3.6602 6.33,-3.1016 8.26,1.6797 l 51.59,129.6871 c 0.74,1.871 -0.31,4.043 -2.23,4.661 -13.23,4.41 -26.45,9.25 -39.8,14.531 -30.24,12.039 -17.32,57.679 16.08,47 13.84,-4.41 27.69,-9.442 41.47,-15.02 2.67,-1.058 4.47,-0.32 5.53,2.348 l 39.11,97.793 c 1.24,3.039 0.25,4.59 -3.04,4.59 v 0"
         style="fill:#fffcf6;fill-opacity:1;fill-rule:nonzero;stroke:none"
         id="path102" />
      <path
         d="m 1076.75,73.4023 c -0.06,134.3477 -0.06,254.9177 0.06,361.6487 0,15.582 8.01,23.719 24.09,24.34 0.31,0 0.62,0 0.99,-0.059 16.27,-0.812 24.4,-9.75 24.4,-26.762 0,-114.55 0,-233.82 0.07,-357.738 0,-19.5625 -8.39,-34.2695 -25.09,-44.1406 -17.57,-10.4414 -44.76,-5.9609 -65.13,-6.4023 -32.03,-0.6797 -37.742,43.7734 -9.18,55.5 14.65,6.0312 31.22,-4.0899 44.64,-9.8086 3.41,-1.418 5.15,-0.3008 5.15,3.4218 v 0"
         style="fill:#fffcf6;fill-opacity:1;fill-rule:nonzero;stroke:none"
         id="path104" />
      <path
         d="m 2716.45,255.5 c -0.57,-53.449 -0.87,-122.059 -0.87,-205.8203 0,-33.7695 -50.11,-34.3281 -50.05,0.1914 0.07,123.1209 0.07,241.5779 -0.06,355.5079 0,4.344 -2.17,6.211 -6.46,5.641 -17.69,-2.29 -33.4,7.39 -32.15,26.519 0.55,9.434 4.78,16.082 12.53,19.863 9.07,4.469 32.29,4.598 41.91,1.68 22.91,-7.082 34.4,-22.852 34.4,-47.312 0.06,-34.579 0.06,-69.528 0,-104.86 0,-3.539 1.61,-4.597 4.84,-3.168 6.52,2.86 14.41,2.418 20.8,-0.812 39.24,-19.93 78.04,-39.61 116.47,-58.981 33.03,-16.636 10.25,-63.078 -22.47,-46.5 -38.68,19.621 -77.61,39.422 -116.66,59.41 -0.99,0.5 -2.23,-0.179 -2.23,-1.359 v 0"
         style="fill:#fffcf6;fill-opacity:1;fill-rule:nonzero;stroke:none"
         id="path106" />
      <path
         d="m 5591.03,305.039 c 8.88,1.434 17.94,-0.117 27.07,-4.707 38.99,-19.691 76.68,-38.871 113.12,-57.621 30.98,-15.961 7.57,-60.781 -22.47,-45.762 -39.86,19.934 -78.6,39.43 -116.23,58.492 -2.48,1.239 -5.4,-0.558 -5.4,-3.359 -0.06,-64.32 -0.12,-131.25 -0.31,-200.7812 -0.13,-37.8086 -50.66,-36.3789 -50.66,2.6094 -0.07,114.0508 -0.13,231.8318 -0.07,353.2698 0,2.73 -1.36,3.972 -4.09,3.781 -20.43,-1.551 -40.3,9.129 -32.66,33.102 2.67,8.308 8.13,13.339 16.51,15.078 33.22,6.949 70.1,-3.969 70.97,-44.391 0.81,-39.418 0.93,-74.937 0.37,-106.418 -0.06,-2.602 1.24,-3.723 3.85,-3.293 v 0"
         style="fill:#fffcf6;fill-opacity:1;fill-rule:nonzero;stroke:none"
         id="path108" />
      <path
         d="m 6262.74,379.609 c -54.95,-0.187 -112.44,-0.25 -172.35,-0.187 -22.91,0 -36.63,10 -41.04,30.051 -2.36,10.808 -4.35,35.949 6.58,44.078 13.85,10.371 26.14,8.262 36.76,-6.211 3.16,-4.277 4.03,-8.93 2.67,-14.09 -0.5,-1.859 0.87,-3.66 2.79,-3.66 63.02,-0.188 123.8,-0.188 182.35,-0.059 11.23,0.059 20.36,6.891 31.66,3.219 22.79,-7.437 19,-26.687 12.23,-45.629 -11.55,-32.219 -24.15,-66.621 -37.81,-103.058 -5.77,-15.461 -16.39,-20.184 -31.79,-14.161 -0.24,0.129 -0.56,0.25 -0.93,0.379 -15.58,6.141 -20.24,18.059 -13.9,35.879 8,22.41 16.57,45.512 25.76,69.172 1.18,2.91 0.19,4.34 -2.98,4.277 v 0"
         style="fill:#fffcf6;fill-opacity:1;fill-rule:nonzero;stroke:none"
         id="path110" />
      <path
         d="m 3900.49,155.98 c -0.69,0.739 -1.93,0.493 -2.24,-0.441 -9.12,-24.527 -17.94,-49.168 -26.45,-73.8202 -9.93,-28.9258 -31.6,-52.2774 -61.96,-54.9375 -10.05,-0.879 -21.05,-1.3125 -32.9,-1.3711 -42.97,-0.0586 -45.95,57.0507 -6.4,63.8203 15.83,2.7304 28.75,-8.6914 40.54,-17.3789 1.99,-1.4922 4.85,-0.6211 5.72,1.6679 l 107.22,294.6015 c 0.68,1.859 -0.69,3.852 -2.67,3.852 -45.2,0.187 -88.16,0.129 -128.89,-0.121 -22.42,-0.063 -41.22,16.14 -41.85,39.109 -0.31,14.16 -3.16,33.102 12.05,40.922 11.67,5.957 21.92,3.847 30.79,-6.403 5.22,-6.019 5.09,-14.589 5.52,-22.16 0.13,-2.168 1.31,-3.23 3.49,-3.23 l 136.28,-0.059 c 2.54,0 4.78,1.551 5.77,3.91 13.35,32.278 56.56,12.789 44.64,-19.5 -22.05,-59.718 -43.46,-118.152 -64.33,-175.332 -0.55,-1.609 0,-3.347 1.37,-4.277 7.2,-4.781 12.23,-11.121 15.15,-19 16.33,-44.453 32.41,-88.59 48.12,-132.4922 0.87,-2.539 2.54,-3.2304 4.96,-2.1679 4.16,1.7304 7.83,4.4101 12.54,4.6484 21.61,0.9297 32.6,-8.2578 32.91,-27.5 0.19,-11.918 -5.71,-18.9375 -17.63,-21.1094 -48.8,-8.8789 -80.53,15.8282 -95.36,60.1602 -7.39,22.0389 -15.16,43.2699 -23.35,63.6989 -0.68,1.801 -1.74,3.481 -3.04,4.91 v 0"
         style="fill:#fffcf6;fill-opacity:1;fill-rule:nonzero;stroke:none"
         id="path112" />
      <path
         d="m 1520.98,294.68 -0.38,86.609 c 0,1.672 -1.36,3.043 -3.04,3.102 l -27.19,0.058 c -17.02,0.071 -25.52,8.571 -25.58,25.582 0,6.77 4.47,12.848 13.41,18.258 2.98,1.801 6.33,2.723 9.81,2.723 h 199.23 c 11.43,0 20.37,-4.711 26.76,-14.153 1.99,-2.918 2.8,-6.019 2.48,-9.308 -1.55,-15.461 -10.36,-23.16 -26.5,-23.102 -39.06,0.071 -78.86,0.071 -119.4,0 -1.55,0 -2.79,-1.297 -2.79,-2.847 l -0.07,-86.051 c 0,-2.922 1.5,-4.41 4.41,-4.41 47.13,0.179 90.46,0.121 129.95,-0.071 15.84,-0.058 23.78,-7.57 23.9,-22.41 0,-0.43 0,-0.75 0,-0.93 0.19,-15.21 -8.06,-22.781 -24.77,-22.847 -42.15,-0.063 -85.93,-0.121 -131.37,-0.121 -1.18,0 -2.17,-1 -2.17,-2.172 l 0.12,-161.9298 c 0,-1.418 0.75,-2.1094 2.17,-2.1094 32.16,0.0703 64.39,0.0703 96.73,-0.0586 12.98,-0.0625 23.59,12.0469 35.45,8.7578 35.27,-9.8789 30.92,-57.25 -9.43,-57.8086 -47.13,-0.6797 -87.79,-0.6797 -121.88,0.1289 -20.24,0.4922 -34.96,9.3086 -44.08,26.3906 -4.6,8.5 -6.77,22.2813 -6.52,41.2813 0.62,51.8398 0.68,100.1488 0.25,144.9688 -0.06,1.43 -1.24,2.609 -2.67,2.609 h -39.43 c -15.33,0.063 -23.4,7.7 -24.08,23.039 -0.07,2.043 0.12,4.09 0.62,6.141 2.85,11.359 10.11,17.012 21.85,17.07 l 40.98,0.25 c 1.8,0.071 3.23,1.559 3.23,3.36 v 0"
         style="fill:#fffcf6;fill-opacity:1;fill-rule:nonzero;stroke:none"
         id="path114" />
      <path
         d="m 7399.54,372.039 c -58.43,0 -119.39,0 -182.91,0 -35.39,0 -33.09,49.113 0.19,49.293 66.37,0.309 132.74,0.438 199.11,0.309 5.15,-0.059 10.18,0.558 14.96,1.8 6.09,1.622 13.35,4.598 19.5,1.989 16.76,-7.2 21.35,-20.301 13.72,-39.297 -43.03,-107.543 -83.2,-208.863 -120.57,-303.9807 -11.62,-29.4296 -30.42,-51.1523 -61.53,-55 -14.53,-1.8007 -49.55,-5.1015 -62.52,4.7774 -34.15,25.8203 3.17,74.5623 39.98,49.7891 7.14,-4.7774 14.16,-9.3086 21.11,-13.4688 1.36,-0.8672 3.23,-0.1875 3.79,1.3008 l 118.15,298.0782 c 1.18,2.922 0.19,4.41 -2.98,4.41 v 0"
         style="fill:#fffcf6;fill-opacity:1;fill-rule:nonzero;stroke:none"
         id="path116" />
      <path
         d="m 6151.92,301.012 c -12.36,-0.813 -19.56,4.648 -21.67,16.449 -5.53,30.672 32.84,27.57 50.54,21.922 18.06,-5.781 27.07,-19.133 27.13,-40.051 0.12,-75.68 0.06,-148.941 -0.19,-219.7812 -0.12,-35.0781 -26.01,-56.3086 -59.85,-53.8906 -22.78,1.6093 -65.81,-8.0704 -62.83,31.7226 0.68,8.5078 3.91,15.207 9.81,20.1797 21.48,18.1289 39.24,1.1797 58.86,-7.5117 1.49,-0.6914 3.22,0.4297 3.22,2.1094 V 296.289 c 0,3.422 -1.67,4.973 -5.02,4.723 v 0"
         style="fill:#fffcf6;fill-opacity:1;fill-rule:nonzero;stroke:none"
         id="path118" />
      <path
         d="m 6686.97,257.18 c 2.37,5.402 6.4,7.511 12.18,6.453 5.46,-1.051 8.62,-6.832 6.51,-11.981 -6.33,-15.339 -12.66,-30.3 -18.99,-45.011 -9.19,-21.418 -45.76,-22.789 -45.58,6.582 0.19,31.906 0.19,62.707 0.07,92.437 -0.07,10.192 7.57,18.75 17.69,19.871 2.98,0.309 6.09,0.129 9.25,-0.562 7.27,-1.547 12.48,-7.817 12.73,-15.207 0.56,-16.883 0.87,-34.02 0.93,-51.461 0.06,-8.512 1.8,-8.891 5.21,-1.121 v 0"
         style="fill:#fffcf6;fill-opacity:1;fill-rule:nonzero;stroke:none"
         id="path120" />
      <path
         d="m 6760.67,251.031 c 1.06,0.809 1.62,1.801 1.55,3.039 -0.06,3.539 1.37,6.211 4.29,8.071 3.16,2.05 6.58,2.672 10.12,1.738 4.96,-1.297 7.63,-6.637 5.71,-11.418 -5.84,-14.219 -15.96,-49.109 -29.18,-57.309 -11.92,-7.39 -33.9,-5.589 -34.15,13.098 -0.49,34.02 -0.56,66.43 -0.25,97.16 0.13,12.36 6.34,19.07 18.63,20.121 2.23,0.192 4.41,-0.121 6.46,-0.929 8.56,-3.289 12.85,-9.563 12.85,-18.75 l 0.06,-52.77 c 0,-3.23 1.3,-3.922 3.91,-2.051 v 0"
         style="fill:#fffcf6;fill-opacity:1;fill-rule:nonzero;stroke:none"
         id="path122" />
      <path
         d="m 6728.95,62.2891 c 29.86,73.1329 62.64,152.7309 98.28,238.7229 13.9,33.648 58.36,12.847 44.14,-20.301 -23.84,-55.629 -48.24,-114.738 -73.14,-177.262 -11.61,-29.2381 -21.66,-47.8084 -30.11,-55.8084 -19.31,-18.3789 -44.64,-25.3984 -75.87,-20.9883 -38.24,5.3399 -14.9,74.1287 31.05,34.2696 1.86,-1.6094 4.71,-0.8711 5.65,1.3672 v 0"
         style="fill:#fffcf6;fill-opacity:1;fill-rule:nonzero;stroke:none"
         id="path124" />
      <path
         d="m 3360.83,237.992 c 0,-26.203 -21.23,-47.429 -47.43,-47.429 -26.2,0 -47.43,21.226 -47.43,47.429 0,26.199 21.23,47.43 47.43,47.43 26.2,0 47.43,-21.231 47.43,-47.43 v 0"
         style="fill:#ed1a31;fill-opacity:1;fill-rule:nonzero;stroke:none"
         id="path126" />
      <path
         d="m 7955.21,237.992 c 0,-26.203 -21.24,-47.429 -47.44,-47.429 -26.2,0 -47.43,21.226 -47.43,47.429 0,26.199 21.23,47.43 47.43,47.43 26.2,0 47.44,-21.231 47.44,-47.43 v 0"
         style="fill:#ed1a31;fill-opacity:1;fill-rule:nonzero;stroke:none"
         id="path128" />
      <path
         d="m 2325.92,224.52 c 0,-12.79 -10.37,-23.161 -23.16,-23.161 h -276.28 c -12.79,0 -23.16,10.371 -23.16,23.161 v 1.742 c 0,12.789 10.37,23.148 23.16,23.148 h 276.28 c 12.79,0 23.16,-10.359 23.16,-23.148 v -1.742 0"
         style="fill:#fffcf6;fill-opacity:1;fill-rule:nonzero;stroke:none"
         id="path130" />
      <path
         d="m 5197.47,224.332 c 0,-12.672 -10.31,-22.973 -22.97,-22.973 h -276.41 c -12.67,0 -22.97,10.301 -22.97,22.973 v 2.109 c 0,12.668 10.3,22.969 22.97,22.969 h 276.41 c 12.66,0 22.97,-10.301 22.97,-22.969 v -2.109 0"
         style="fill:#fffcf6;fill-opacity:1;fill-rule:nonzero;stroke:none"
         id="path132" />
      <path
         d="m 976.664,187.332 c 34.836,5.828 25.896,-55.07 -13.035,-45.762 -28.246,6.77 -42.344,25.582 -42.281,56.309 0.25,79.473 0.25,155.41 0.062,227.801 -0.125,35.14 49.856,36.5 49.789,-2.918 -0.054,-73.449 -0.121,-150.371 -0.054,-230.77 0,-3.73 1.859,-5.281 5.519,-4.66 v 0"
         style="fill:#fffcf6;fill-opacity:1;fill-rule:nonzero;stroke:none"
         id="path134" />
    </g>
  </g>
</svg>
